# xmcd CD database file
#
# Track frame offsets:
#	150
#	16153
#	26158
#	36616
#	48339
#	61855
#	79273
#	91496
#	104229
#	116268
#	124697
#	138287
#	148771
#	158341
#	172858
#	197194
#	210180
#	226523
#	236599
#	252097
#	269159
#	293594
#	311780
#
# Disc length: 4375 seconds
#
# Revision: 2
# Processed by: cddbd v1.5.2PL0 Copyright (c) Steve Scherf et al.
# Submitted via: CdAid (MTCDDB.DLL V2003.12.21)
#
DISCID=3d111517
DTITLE=Antônio Carlos Jobim - Sun Sea And Sand Favourites
DYEAR=2004
DGENRE=Other
TTITLE0=Águas De Março
TTITLE1=Amor Em Paz
TTITLE2=Água De Beber
TTITLE3=Ela É Carioca
TTITLE4=O Morro Não Tem Vez
TTITLE5=Corcovado
TTITLE6=Meditation
TTITLE7=Insensatez
TTITLE8=Triste
TTITLE9=Por Toda Minha Vida
TTITLE10=Luiza
TTITLE11=Soneto De Separação
TTITLE12=Felicidade
TTITLE13=Saudade De Bahia
TTITLE14=Garôta De Ipanema
TTITLE15=Wave
TTITLE16=Passarim
TTITLE17=Samba Do Avião
TTITLE18=Só Tinha De Ser Com Você
TTITLE19=Looks Like December
TTITLE20=Chega De Saudade
TTITLE21=Desafinado
TTITLE22=So Danço Samba
EXTD=YEAR: 2004 ID3G:  12
EXTT0=
EXTT1=
EXTT2=
EXTT3=
EXTT4=
EXTT5=
EXTT6=
EXTT7=
EXTT8=
EXTT9=
EXTT10=
EXTT11=
EXTT12=
EXTT13=
EXTT14=
EXTT15=
EXTT16=
EXTT17=
EXTT18=
EXTT19=
EXTT20=
EXTT21=
EXTT22=
PLAYORDER=
